# AST/ASF file generated using VICON BodyLanguage
# -----------------------------------------------
:version 1.10
:name VICON
:units
  mass 1.0
  length 0.45
  angle deg
:documentation
   .ast/.asf automatically generated from VICON data using
   VICON BodyBuilder and BodyLanguage model FoxedUp or BRILLIANT.MOD
:root
   order TX TY TZ RX RY RZ
   axis XYZ
   position 0 0 0  
   orientation 0 0 0 
:bonedata
  begin
     id 1 
     name lhipjoint
     direction 0.635376 -0.686425 0.353719 
     length 2.47244 
     axis 0 0 0  XYZ
  end
  begin
     id 2 
     name lfemur
     direction 0.34202 -0.939693 0  
     length 7.25268  
     axis 0 0 20  XYZ
    dof rx ry rz
    limits (-160.0 20.0)
           (-70.0 70.0)
           (-60.0 70.0)
  end
  begin
     id 3 
     name ltibia
     direction 0.34202 -0.939693 0   
     length 7.6767   
     axis 0 0 20   XYZ
    dof rx
    limits (-10.0 170.0)
  end
  begin
     id 4 
     name lfoot
     direction 0.0803374 -0.220725 0.972022   
     length 2.22945   
     axis -90 7.62852e-016 20   XYZ
    dof rx rz
    limits (-45.0 90.0)
           (-70.0 20.0)
  end
  begin
     id 5 
     name ltoes
     direction 1.53579e-011 -4.21994e-011 1   
     length 1.11848   
     axis -90 7.62852e-016 20   XYZ
    dof rx
    limits (-90.0 20.0)
  end
  begin
     id 6 
     name rhipjoint
     direction -0.664428 -0.664335 0.342336   
     length 2.55466  
     axis 0 0 0  XYZ 
  end
  begin
     id 7 
     name rfemur
     direction -0.34202 -0.939693 0   
     length 6.83172   
     axis 0 0 -20   XYZ
    dof rx ry rz
    limits (-160.0 20.0)
           (-70.0 70.0)
           (-70.0 60.0)
  end
  begin
     id 8 
     name rtibia
     direction -0.34202 -0.939693 0   
     length 7.62692   
     axis 0 0 -20   XYZ
    dof rx
    limits (-10.0 170.0)
 end
 begin
     id 9 
     name rfoot
     direction -0.0949276 -0.260811 0.960711   
     length 2.19684  
     axis -90 -7.62852e-016 -20   XYZ
    dof rx rz
    limits (-45.0 90.0)
           (-20.0 70.0)
  end
  begin
     id 10 
     name rtoes
     direction -1.53543e-011 -4.2183e-011 1   
     length 1.09848   
     axis -90 -7.62852e-016 -20   XYZ
    dof rx
    limits (-90.0 20.0)
  end
  begin
     id 11 
     name lowerback
     direction 0.0118782 0.999815 -0.0151555   
     length 2.15772   
     axis 0 0 0   XYZ
    dof rx ry rz
    limits (-20.0 45.0)
           (-30.0 30.0)
           (-30.0 30.0)
  end
  begin
     id 12 
     name upperback
     direction 0.00130825 0.999065 0.0432113   
     length 2.14863   
     axis 0 0 0   XYZ
    dof rx ry rz
    limits (-20.0 45.0)
           (-30.0 30.0)
           (-30.0 30.0)
  end
  begin
     id 13 
     name thorax
     direction -0.00347005 0.998773 0.0494011   
     length 2.14936   
     axis 0 0 0   XYZ
    dof rx ry rz
    limits (-20.0 45.0)
           (-30.0 30.0)
           (-30.0 30.0)
  end
  begin
     id 14 
     name lowerneck
     direction -0.0262159 0.99424 0.103921   
     length 1.69373   
     axis 0 0 0   XYZ
    dof rx ry rz
    limits (-20.0 45.0)
           (-30.0 30.0)
           (-30.0 30.0)
  end
  begin
     id 15 
     name upperneck
     direction 0.0353511 0.977394 -0.20845   
     length 1.70857   
     axis 0 0 0   XYZ
    dof rx ry rz
    limits (-20.0 45.0)
           (-30.0 30.0)
           (-30.0 30.0)
  end
  begin
     id 16
     name head
     direction 0.0139214 0.996594 -0.0812836  
     length 1.72777  
     axis 0 0 0   XYZ
    dof rx ry rz
    limits (-20.0 45.0)
           (-30.0 30.0)
           (-30.0 30.0)
  end
  begin
     id 17 
     name lclavicle
     direction 0.841247 0.537205 -0.0609508  
     length 3.55371  
     axis 0 0 0   XYZ
    dof ry rz
    limits (-20.0 10.0)
           (0.0 20.0)
  end
  begin
     id 18 
     name lhumerus
     direction 1 -4.48964e-011 1.60116e-018   
     length 4.91377   
     axis -180 -30 -90   XYZ
    dof rx ry rz
    limits (-60.0 90.0)
           (-90.0 90.0)
           (-90.0 90.0)
  end
  begin
     id 19
     name lradius
     direction 1 -4.48989e-011 -8.93847e-027   
     length 3.00291   
     axis -180 -30 -90   XYZ
    dof rx
    limits (-10.0 170.0)
  end
  begin
     id 20
     name lwrist
     direction 1 -4.48932e-011 -7.31504e-027   
     length 1.50145   
     axis 5.74121e-015 90 90   XYZ
    dof ry
    limits (-180.0 0.0)
 end
  begin
     id 21 
     name lhand
     direction 1 -4.48971e-011 -1.46301e-026   
     length 0.450922   
     axis 9.33524e-015 90 90   XYZ
    dof rx rz
    limits (-90.0 90.0)
           (-45.0 45.0)
  end
  begin
     id 22 
     name lfingers
     direction 1 -4.49039e-011 -2.92602e-026   
     length 0.363545   
     axis 1.86705e-014 90 90   XYZ
    dof rx
    limits (0.0 90.0)
  end
  begin
     id 23
     name lthumb
     direction 0.707107 -6.34941e-011 0.707107   
     length 0.52198   
     axis -90 45 2.85299e-015   XYZ
    dof rx rz
    limits (-45.0 45.0)
           (-45.0 45.0)
  end
  begin
     id 24 
     name rclavicle
     direction -0.825079 0.56158 -0.0622297   
     length 3.39909  
     axis 0 0 0   XYZ 
    dof ry rz
    limits (-10.0 20.0)
           (-20.0 0.0)
  end
  begin
     id 25 
     name rhumerus
     direction -1 -4.48965e-011 1.61691e-027  
     length 4.86725   
     axis -180 30 90   XYZ
    dof rx ry rz
    limits (-90.0 60.0)
           (-90.0 90.0)
           (-90.0 90.0)
  end
  begin
     id 26 
     name rradius
     direction -1 -4.48964e-011 -2.25776e-027   
     length 3.17144   
     axis -180 30 90   XYZ
    dof rx
    limits (-10.0 170.0)
  end
  begin
     id 27 
     name rwrist
     direction -1 -4.48961e-011 -7.31504e-027   
     length 1.58572   
     axis 5.74121e-015 -90 -90   XYZ
    dof ry
    limits (-180.0 0.0)
  end
  begin
     id 28
     name rhand
     direction -1 -4.49013e-011 -1.46301e-026   
     length 0.419368   
     axis 9.33524e-015 -90 -90   XYZ
    dof rx rz
    limits (-90.0 90.0)
           (-45.0 45.0)
  end
  begin
     id 29
     name rfingers
     direction -1 -4.489e-011 -2.92602e-026   
     length 0.338105   
     axis 1.86705e-014 -90 -90   XYZ
    dof rx
    limits (0.0 90.0)
  end
  begin
     id 30
     name rthumb
     direction -0.707107 -6.35022e-011 0.707107   
     length 0.485453   
     axis -90 -45 -2.85299e-015   XYZ
    dof rx rz
    limits (-45.0 45.0)
           (-45.0 45.0)
  end
:hierarchy
  begin
    root lhipjoint rhipjoint lowerback
    lhipjoint lfemur
    lfemur ltibia
    ltibia lfoot
    lfoot ltoes
    rhipjoint rfemur
    rfemur rtibia
    rtibia rfoot
    rfoot rtoes
    lowerback upperback
    upperback thorax
    thorax lowerneck lclavicle rclavicle
    lowerneck upperneck
    upperneck head
    lclavicle lhumerus
    lhumerus lradius
    lradius lwrist
    lwrist lhand lthumb
    lhand lfingers
    rclavicle rhumerus
    rhumerus rradius
    rradius rwrist
    rwrist rhand rthumb
    rhand rfingers
  end

#!OML:ASF H:\Swim 2\Project 1\Capture day 1\Session 1\male.ASF
:FULLY-SPECIFIED
:DEGREES
907
root 1.74222 14.4261 8.55684 107.104 7.06511 1.03768
lowerback -22.2713 -1.44612 -5.5049
upperback -7.19417 -1.19976 8.7949
thorax 4.77498 -0.522796 12.7743
lowerneck -23.523 -0.238812 -7.13847
upperneck 22.2875 4.01913 -6.45196
head 11.2323 0.349697 -0.542788
rclavicle -2.22639e-014 -2.99668e-014
rhumerus 25.8493 21.0166 -24.0524
rradius 67.7233
rwrist -15.904
rhand -28.0399 5.20396
rfingers 7.12502
rthumb -1.42446 -24.771
lclavicle -2.22639e-014 -2.99668e-014
lhumerus 72.0161 37.9058 38.7604
lradius 28.8433
lwrist 24.5929
lhand -33.9549 -0.521156
lfingers 7.12502
lthumb -7.136 29.3385
rfemur -38.3686 -6.34803 21.086
rtibia 38.272
rfoot 21.591 -1.04827
rtoes 15.3222
lfemur -50.2073 -7.92734 -19.2016
ltibia 26.7509
lfoot -0.806586 19.5955
ltoes 5.43439
908
root 1.71305 14.4346 8.57764 107.63 6.92547 1.62586
lowerback -22.3086 -1.76296 -5.56563
upperback -7.35468 -1.60666 8.67507
thorax 4.72005 -0.723825 12.5501
lowerneck -23.7686 -0.287457 -6.98092
upperneck 23.0392 4.04267 -6.63205
head 11.5752 0.306001 -0.639054
rclavicle 1.98785e-015 -2.37051e-014
rhumerus 24.0983 22.4979 -24.997
rradius 69.4033
rwrist -13.49
rhand -28.2807 6.96393
rfingers 7.12502
rthumb -1.65701 -23.0094
lclavicle 1.98785e-015 -2.37051e-014
lhumerus 72.7851 37.6906 39.4015
lradius 29.1957
lwrist 25.0538
lhand -34.1932 -0.37704
lfingers 7.12502
lthumb -7.36605 29.4747
rfemur -38.3133 -6.879 21.0816
rtibia 38.741
rfoot 21.9212 -0.972867
rtoes 15.0662
lfemur -50.7033 -10.1581 -17.3213
ltibia 24.8589
lfoot -1.67833 21.7402
ltoes 6.67933
909
root 1.68086 14.4452 8.59649 108.097 6.78679 2.14119
lowerback -22.2996 -2.08416 -5.61113
upperback -7.49075 -2.02672 8.56199
thorax 4.67022 -0.93377 12.3199
lowerneck -23.9726 -0.308053 -6.85211
upperneck 23.7843 4.10549 -6.79104
head 11.9118 0.281376 -0.718207
rclavicle -8.74653e-015 -7.05686e-015
rhumerus 22.3291 23.9181 -26.0988
rradius 70.931
rwrist -10.9501
rhand -28.5763 8.42947
rfingers 7.12502
rthumb -1.94247 -21.5414
lclavicle -8.74653e-015 -7.05686e-015
lhumerus 73.4146 37.4769 39.9194
lradius 29.5089
lwrist 25.4293
lhand -34.4671 -0.283325
lfingers 7.12502
lthumb -7.6304 29.559
rfemur -38.3076 -7.29128 21.0621
rtibia 39.2735
rfoot 22.1981 -0.896239
rtoes 14.8974
lfemur -51.2527 -12.3627 -15.2983
ltibia 23.2969
lfoot -2.6217 23.8455
ltoes 7.92831
910
root 1.64481 14.4575 8.61437 108.487 6.66029 2.5581
lowerback -22.2398 -2.39925 -5.64934
upperback -7.59758 -2.44401 8.45452
thorax 4.62441 -1.14439 12.0925
lowerneck -24.1099 -0.308356 -6.75918
upperneck 24.4929 4.18914 -6.91236
head 12.2243 0.271014 -0.774758
rclavicle -6.95746e-015 -1.11816e-014
rhumerus 20.5213 25.2565 -27.3617
rradius 72.304
rwrist -8.4255
rhand -28.8772 9.5535
rfingers 7.12502
rthumb -2.23309 -20.4146
lclavicle -6.95746e-015 -1.11816e-014
lhumerus 73.9246 37.2463 40.3412
lradius 29.7906
lwrist 25.739
lhand -34.7758 -0.233629
lfingers 7.12502
lthumb -7.92838 29.5977
rfemur -38.3253 -7.55793 21.0329
rtibia 39.8458
rfoot 22.4396 -0.819695
rtoes 14.8188
lfemur -51.8064 -14.3321 -13.3202
ltibia 22.101
lfoot -3.55415 25.6882
ltoes 9.02772
911
root 1.60439 14.471 8.63234 108.787 6.55628 2.85604
lowerback -22.1287 -2.6986 -5.68808
upperback -7.67195 -2.8436 8.35236
thorax 4.58247 -1.34788 11.8771
lowerneck -24.1664 -0.297086 -6.707
upperneck 25.1485 4.27712 -6.98675
head 12.5018 0.269443 -0.80614
rclavicle 2.0773e-014 -1.70458e-014
rhumerus 18.6608 26.497 -28.7803
rradius 73.5203
rwrist -6.09009
rhand -29.1288 10.3378
rfingers 7.12502
rthumb -2.4761 -19.6276
lclavicle 2.0773e-014 -1.70458e-014
lhumerus 74.3213 36.9841 40.6746
lradius 30.0516
lwrist 26.0263
lhand -35.1155 -0.215758
lfingers 7.12502
lthumb -8.25626 29.6029
rfemur -38.3438 -7.66271 21.0003
rtibia 40.4318
rfoot 22.6695 -0.742107
rtoes 14.827
lfemur -52.2779 -15.8528 -11.6207
ltibia 21.2899
lfoot -4.31656 27.0204
ltoes 9.7666
912
root 1.55945 14.4853 8.6512 108.992 6.48172 3.02222
lowerback -21.9723 -2.97571 -5.72678
upperback -7.71027 -3.21657 8.25338
thorax 4.54927 -1.53984 11.6743
lowerneck -24.1433 -0.278217 -6.69921
upperneck 25.7356 4.36295 -7.01302
head 12.7368 0.274298 -0.811472
rclavicle -3.08116e-015 -1.74876e-014
rhumerus 16.7516 27.6275 -30.3445
rradius 74.577
rwrist -4.11838
rhand -29.2822 10.822
rfingers 7.12502
rthumb -2.62429 -19.1416
lclavicle -3.08116e-015 -1.74876e-014
lhumerus 74.5982 36.6904 40.8998
lradius 30.3008
lwrist 26.3424
lhand -35.4755 -0.214731
lfingers 7.12502
lthumb -8.60365 29.59
rfemur -38.3509 -7.60245 20.9705
rtibia 41.0072
rfoot 22.9129 -0.659216
rtoes 14.9126
lfemur -52.5728 -16.773 -10.4039
ltibia 20.8625
lfoot -4.73372 27.6609
ltoes 10.0033
913
root 1.51027 14.4996 8.6712 109.107 6.43794 3.05444
lowerback -21.7822 -3.22857 -5.75865
upperback -7.70997 -3.56107 8.15358
thorax 4.53289 -1.71966 11.4759
lowerneck -24.056 -0.252479 -6.7386
upperneck 26.2411 4.44745 -6.99427
head 12.9256 0.285373 -0.790632
rclavicle 1.88845e-015 2.43014e-014
rhumerus 14.8129 28.6422 -32.0368
rradius 75.4702
rwrist -2.64735
rhand -29.318 11.0709
rfingers 7.12502
rthumb -2.65882 -18.8923
lclavicle 1.88845e-015 2.43014e-014
lhumerus 74.7433 36.3768 40.9836
lradius 30.543
lwrist 26.7203
lhand -35.8407 -0.219511
lfingers 7.12502
lthumb -8.95607 29.5704
rfemur -38.3467 -7.38949 20.9479
rtibia 41.5536
rfoot 23.1909 -0.564179
rtoes 15.0623
lfemur -52.633 -17.0529 -9.76369
ltibia 20.7971
lfoot -4.71395 27.5675
ltoes 9.73348
914
root 1.45751 14.5133 8.692 109.147 6.4205 2.96189
lowerback -21.5758 -3.46019 -5.76672
upperback -7.66892 -3.88389 8.04553
thorax 4.54475 -1.89135 11.2608
lowerneck -23.929 -0.215566 -6.83004
upperneck 26.6417 4.53888 -6.93223
head 13.0622 0.305909 -0.741362
rclavicle 1.98785e-016 6.80837e-015
rhumerus 12.8789 29.5406 -33.8384
rradius 76.1952
rwrist -1.74672
rhand -29.2472 11.1524
rfingers 7.12502
rthumb -2.59048 -18.8116
lclavicle 1.98785e-016 6.80837e-015
lhumerus 74.746 36.0664 40.8881
lradius 30.7771
lwrist 27.1576
lhand -36.1923 -0.22261
lfingers 7.12502
lthumb -9.29535 29.5525
rfemur -38.3435 -7.04988 20.9343
rtibia 42.0579
rfoot 23.5163 -0.449639
rtoes 15.2542
lfemur -52.4609 -16.7657 -9.65676
ltibia 21.0534
lfoot -4.29722 26.8425
ltoes 9.09048
915
root 1.40218 14.526 8.71287 109.133 6.41998 2.76342
lowerback -21.3729 -3.67672 -5.73091
upperback -7.58686 -4.19613 7.91904
thorax 4.59555 -2.06092 11.0013
lowerneck -23.7905 -0.160103 -6.97192
upperneck 26.9138 4.6488 -6.83168
head 13.1415 0.340776 -0.663272
rclavicle 1.94809e-014 1.51076e-014
rhumerus 10.9838 30.3249 -35.7286
rradius 76.756
rwrist -1.41358
rhand -29.0955 11.1042
rfingers 7.12502
rthumb -2.44395 -18.8615
lclavicle 1.94809e-014 1.51076e-014
lhumerus 74.6053 35.7829 40.5857
lradius 30.9951
lwrist 27.612
lhand -36.5102 -0.218969
lfingers 7.12502
lthumb -9.60205 29.5422
rfemur -38.3603 -6.61921 20.9278
rtibia 42.5112
rfoot 23.8911 -0.310205
rtoes 15.4584
lfemur -52.1049 -16.0524 -9.94955
ltibia 21.578
lfoot -3.60861 25.6763
ltoes 8.28099
